<?xml version="1.0" encoding="iso-8859-1"?>
<!-- Generator: Adobe Illustrator 19.0.0, SVG Export Plug-In . SVG Version: 6.00 Build 0)  -->
<svg version="1.1" id="Layer_1" xmlns="http://www.w3.org/2000/svg" xmlns:xlink="http://www.w3.org/1999/xlink" x="0px" y="0px"
	 viewBox="0 0 512.001 512.001" style="enable-background:new 0 0 512.001 512.001;" xml:space="preserve">
<path style="fill:#F0D355;" d="M395.39,494.627c-3.437,0-6.886-0.798-10.061-2.418l-129.329-65.976L126.67,492.209
	c-3.175,1.62-6.624,2.418-10.061,2.418c-4.575,0-9.125-1.416-12.973-4.195c-6.735-4.868-10.178-13.097-8.916-21.311l22.248-144.787
	L14.681,220.43c-5.807-5.898-7.84-14.543-5.27-22.41c2.57-7.868,9.314-13.645,17.483-14.978L170,159.688l66.266-130.213
	c3.778-7.425,11.404-12.1,19.734-12.1s15.957,4.676,19.734,12.1l66.266,130.213l143.106,23.354
	c8.17,1.333,14.914,7.11,17.483,14.978c2.57,7.868,0.537,16.512-5.27,22.41L395.031,324.334l22.248,144.787
	c1.263,8.214-2.181,16.444-8.916,21.311C404.515,493.211,399.965,494.627,395.39,494.627z"/>
<path style="fill:#636052;" d="M395.39,502.931c-4.785,0-9.569-1.15-13.834-3.325L256,435.555l-125.555,64.05
	c-4.266,2.176-9.049,3.325-13.834,3.325c-6.445,0-12.614-1.995-17.836-5.768c-9.307-6.727-14.004-17.955-12.26-29.304
	l21.615-140.668L8.763,226.255c-8.017-8.143-10.794-19.951-7.245-30.814c3.549-10.864,12.759-18.754,24.039-20.596l138.952-22.676
	l64.356-126.462c5.223-10.262,15.619-16.638,27.136-16.638s21.913,6.375,27.136,16.639l64.356,126.462l138.952,22.676
	c11.28,1.84,20.491,9.732,24.039,20.595c3.548,10.865,0.772,22.672-7.245,30.816l-99.366,100.935l21.614,140.669
	c1.744,11.349-2.953,22.576-12.259,29.303C408.003,500.936,401.834,502.931,395.39,502.931z M256,416.912l133.103,67.9
	c1.939,0.989,4.113,1.511,6.288,1.511c2.93,0,5.735-0.907,8.109-2.623c4.229-3.056,6.365-8.16,5.571-13.318l-22.88-148.905
	l105.211-106.873c3.645-3.701,4.907-9.069,3.295-14.007c-1.613-4.938-5.801-8.524-10.928-9.361l-147.26-24.032L268.333,33.24
	c-2.373-4.665-7.099-7.563-12.334-7.563c-5.234,0-9.96,2.897-12.334,7.563l-68.174,133.965L28.232,191.237
	c-5.127,0.836-9.315,4.423-10.928,9.361c-1.612,4.938-0.35,10.305,3.295,14.006L125.81,321.478l-22.88,148.904
	c-0.794,5.158,1.342,10.262,5.572,13.319c2.374,1.715,5.177,2.622,8.108,2.622c2.174,0,4.349-0.523,6.289-1.511L256,416.912z"/>
<g style="opacity:0.1;">
	<path style="fill:#414042;" d="M150.139,479.088c-6.735-4.867-10.178-13.097-8.916-21.311L163.47,312.99L61.183,209.087
		c-5.807-5.898-7.84-14.543-5.27-22.41c1.191-3.647,3.287-6.836,5.999-9.349l-35.017,5.714c-8.17,1.333-14.914,7.11-17.483,14.978
		c-2.57,7.868-0.537,16.512,5.27,22.41L116.97,324.334L94.722,469.12c-1.263,8.214,2.181,16.444,8.916,21.311
		c3.847,2.78,8.398,4.195,12.973,4.195c3.437,0,6.886-0.798,10.061-2.418l24.446-12.471
		C150.789,479.525,150.458,479.319,150.139,479.088z"/>
</g>
<g>
</g>
<g>
</g>
<g>
</g>
<g>
</g>
<g>
</g>
<g>
</g>
<g>
</g>
<g>
</g>
<g>
</g>
<g>
</g>
<g>
</g>
<g>
</g>
<g>
</g>
<g>
</g>
<g>
</g>
</svg>
